<?xml version="1.0" encoding="UTF-8" standalone="no"?>
<!-- Created with Inkscape (http://www.inkscape.org/) -->

<svg
   width="55.999268"
   height="55.999878"
   viewBox="0 0 14.816472 14.816634"
   version="1.1"
   id="svg1"
   xmlns="http://www.w3.org/2000/svg"
   xmlns:svg="http://www.w3.org/2000/svg">
  <defs
     id="defs1" />
  <g
     id="layer1"
     transform="translate(-296.74672,-477.60956)">
    <path
       id="path3"
       style="fill:#ffffff;stroke-width:0.0450502"
       d="m 304.13398,477.60957 c -4.07968,0 -7.38727,3.30719 -7.38727,7.38687 v 0.0423 c 0,4.07969 3.30759,7.38747 7.38727,7.38747 h 0.0423 c 4.07968,0 7.38689,-3.30778 7.38689,-7.38747 v -0.0423 c 0,-4.07968 -3.30721,-7.38687 -7.38689,-7.38687 z m 0.32202,3.39366 h 1.39784 c 0.005,0.11861 0.01,0.23749 0.0149,0.35592 0.01,0.23335 0.0926,0.45676 0.23696,0.64013 0.17017,0.21521 0.42031,0.46588 0.77262,0.66579 0.32924,0.18654 0.63881,0.26675 0.85826,0.30458 h 1.9e-4 v 1.39843 c -0.24461,-0.0239 -0.56195,-0.0788 -0.91373,-0.20814 -0.45913,-0.16806 -0.80062,-0.39832 -1.02447,-0.57624 v 2.82744 l -0.006,-0.009 c 0.003,0.056 0.006,0.11313 0.006,0.17032 0,1.40465 -1.14233,2.54716 -2.54716,2.54716 -1.40465,0 -2.54715,-1.14251 -2.54715,-2.54716 0,-1.40465 1.1425,-2.54755 2.54715,-2.54755 0.13744,0 0.27252,0.0112 0.40415,0.0325 v 1.37844 c -0.1267,-0.0454 -0.26214,-0.0698 -0.40415,-0.0698 -0.66484,0 -1.20635,0.54097 -1.20635,1.20635 0,0.66537 0.54151,1.20694 1.20635,1.20694 0.66502,0 1.20656,-0.54157 1.20656,-1.20694 0,-0.0248 -4.5e-4,-0.0494 -0.002,-0.0743 z" />
  </g>
</svg>
