<?xml version="1.0" encoding="UTF-8" standalone="no"?>
<!-- Created with Inkscape (http://www.inkscape.org/) -->

<svg
   width="55.999268"
   height="55.863647"
   viewBox="0 0 14.816472 14.78059"
   version="1.1"
   id="svg1"
   xmlns="http://www.w3.org/2000/svg"
   xmlns:svg="http://www.w3.org/2000/svg">
  <defs
     id="defs1" />
  <g
     id="layer1"
     transform="translate(-257.46742,-477.60955)">
    <path
       id="path1"
       style="fill:#ffffff;stroke-width:0.0450502"
       d="m 264.85469,477.60957 c -4.08022,0 -7.38727,3.30719 -7.38727,7.38687 v 0.0423 c 0,3.61968 2.60337,6.63197 6.04038,7.26478 v -5.75696 h -1.37196 v -1.52583 h 1.37196 v -0.62562 c 0,-0.93444 0.28334,-1.70928 0.82025,-2.24004 0.5538,-0.54781 1.37993,-0.83749 2.38899,-0.83749 0.66413,0 1.27953,0.12859 1.6885,0.34927 l -0.52037,1.4339 c -0.27575,-0.1348 -0.59319,-0.20677 -0.9198,-0.20677 -0.90418,0 -1.40197,0.53916 -1.40197,1.51759 v 0.60916 h 2.15165 l -0.57956,1.52583 h -1.50642 v 5.84361 c 3.736,-0.36763 6.65483,-3.51898 6.65483,-7.35141 v -0.0423 c 0,-4.07969 -3.3074,-7.38688 -7.38727,-7.38688 z" />
  </g>
</svg>
