<?xml version="1.0" encoding="UTF-8" standalone="no"?>
<!-- Created with Inkscape (http://www.inkscape.org/) -->

<svg
   width="55.999146"
   height="55.999878"
   viewBox="0 0 14.81644 14.816634"
   version="1.1"
   id="svg1"
   xmlns="http://www.w3.org/2000/svg"
   xmlns:svg="http://www.w3.org/2000/svg">
  <defs
     id="defs1" />
  <g
     id="layer1"
     transform="translate(-316.46466,-477.60956)">
    <path
       id="path4"
       style="fill:#ffffff;stroke-width:0.0450502"
       d="m 323.85192,477.60957 c -4.08021,0 -7.38727,3.30778 -7.38727,7.38746 v 0.0423 c 0,4.07968 3.30706,7.38688 7.38727,7.38688 h 0.0419 c 4.07987,0 7.38729,-3.3072 7.38729,-7.38688 v -0.0423 c 0,-4.07968 -3.30742,-7.38746 -7.38729,-7.38746 z m 0.17934,2.741 c 1.17219,0 2.2935,0.43779 3.15808,1.23339 0.8586,0.79067 1.38797,1.8623 1.49074,3.01794 0.0122,0.13551 0.0184,0.27567 0.0184,0.4161 v 0.0249 c -0.0123,2.20112 -1.58525,4.11449 -3.74097,4.55004 -0.14413,0.0294 -0.29148,0.0519 -0.43648,0.0672 -0.1649,0.017 -0.32948,0.0255 -0.48979,0.0255 -0.60995,0 -1.20322,-0.11658 -1.76318,-0.34535 l -3.22119,0.34281 1.00605,-2.22691 c -0.45103,-0.73295 -0.68932,-1.57449 -0.68932,-2.43818 0,-2.57368 2.09397,-4.66744 4.66764,-4.66744 z m 0,0.94156 c -2.05471,0 -3.72608,1.67116 -3.72608,3.72587 0,0.78803 0.24421,1.54175 0.70598,2.17968 0.008,0.0122 0.0162,0.0226 0.0243,0.0327 l 0.10623,0.14346 -0.53252,1.17852 1.78239,-0.18972 0.067,0.0323 c 0.0465,0.0226 0.0955,0.0442 0.14583,0.0645 0.45331,0.18917 0.93306,0.28478 1.42685,0.28478 0.13866,0 0.27831,-0.008 0.41433,-0.0235 0.1311,-0.0144 0.26235,-0.036 0.39082,-0.0643 1.67934,-0.37167 2.87995,-1.83186 2.91954,-3.55046 0.002,-0.0302 0.002,-0.0592 0.002,-0.088 0,-0.10172 -0.005,-0.20475 -0.0133,-0.30752 -0.15715,-1.91693 -1.78793,-3.41836 -3.71294,-3.41836 z m -1.28221,1.58168 c 0.0496,0 0.0982,0.004 0.14466,0.0126 0.10277,0.0167 0.20055,0.0518 0.29065,0.10408 0.013,0.007 0.0216,0.0203 0.0239,0.0347 l 0.20051,1.2632 c 0.002,0.015 -0.002,0.0297 -0.0122,0.0406 -0.11034,0.12283 -0.25185,0.21081 -0.40865,0.25479 l -0.0757,0.0214 0.0288,0.0735 c 0.2585,0.65815 0.78441,1.18427 1.44291,1.44331 l 0.0735,0.0288 0.0212,-0.0757 c 0.0442,-0.15715 0.13252,-0.2987 0.255,-0.40904 0.009,-0.008 0.0208,-0.0126 0.0329,-0.0126 l 0.007,6.8e-4 1.2628,0.20012 c 0.0153,0.002 0.0282,0.0106 0.0357,0.0241 0.0519,0.0896 0.0868,0.18749 0.10407,0.29026 0.008,0.0459 0.0122,0.0941 0.0122,0.14446 0,0.48023 -0.39102,0.87125 -0.87179,0.87178 v 1.9e-4 c -1.89616,-3.8e-4 -3.43918,-1.54357 -3.43952,-3.43972 6.9e-4,-0.48059 0.39188,-0.87159 0.87159,-0.87159 z" />
  </g>
</svg>
