<?xml version="1.0" encoding="UTF-8" standalone="no"?>
<!-- Created with Inkscape (http://www.inkscape.org/) -->

<svg
   width="56.000244"
   height="55.999878"
   viewBox="0 0 14.816731 14.816634"
   version="1.1"
   id="svg1"
   xmlns="http://www.w3.org/2000/svg"
   xmlns:svg="http://www.w3.org/2000/svg">
  <defs
     id="defs1" />
  <g
     id="layer1"
     transform="translate(-277.18537,-477.60956)">
    <path
       id="path2"
       style="fill:#ffffff;stroke-width:0.0450502"
       d="m 284.57283,477.60957 c -4.07986,0 -7.38747,3.30719 -7.38747,7.38687 v 0.0423 c 0,4.07969 3.30761,7.38747 7.38747,7.38747 h 0.0422 c 4.07986,0 7.38707,-3.30778 7.38707,-7.38747 v -0.0423 c 0,-4.07968 -3.30721,-7.38687 -7.38707,-7.38687 z m -2.27159,3.0144 h 4.58473 c 1.26633,0 2.29668,1.03035 2.29668,2.29668 v 4.19411 c 0,1.26687 -1.03035,2.29708 -2.29668,2.29708 h -4.58473 c -1.26633,0 -2.29667,-1.03021 -2.29667,-2.29708 v -4.19411 c 0,-1.26633 1.03034,-2.29668 2.29667,-2.29668 z m 0,0.81006 c -0.81935,0 -1.48604,0.6671 -1.48604,1.48662 v 4.19411 c 0,0.82006 0.66669,1.48663 1.48604,1.48663 h 4.58473 c 0.82005,0 1.48663,-0.66657 1.48663,-1.48663 v -4.19411 c 0,-0.81952 -0.66658,-1.48662 -1.48663,-1.48662 z m 4.62726,0.64051 c 0.31763,0 0.57564,0.25872 0.57564,0.57583 0,0.31764 -0.25801,0.57564 -0.57564,0.57564 -0.31765,0 -0.57583,-0.258 -0.57583,-0.57564 0,-0.31711 0.25818,-0.57583 0.57583,-0.57583 z m -2.3347,0.80691 c 1.178,0 2.13655,0.95819 2.13655,2.13635 0,1.17799 -0.95855,2.13676 -2.13655,2.13676 -1.17799,0 -2.13654,-0.95877 -2.13654,-2.13676 0,-1.17816 0.95855,-2.13635 2.13654,-2.13635 z m 0,0.80986 c -0.73118,0 -1.3263,0.59531 -1.3263,1.32649 0,0.73102 0.59512,1.32611 1.3263,1.32611 0.7312,0 1.3265,-0.59509 1.3265,-1.32611 0,-0.73118 -0.5953,-1.32649 -1.3265,-1.32649 z" />
  </g>
</svg>
