<?xml version="1.0" encoding="UTF-8" standalone="no"?>
<!-- Created with Inkscape (http://www.inkscape.org/) -->

<svg
   width="143.90305"
   height="35"
   viewBox="0 0 38.074346 9.2604167"
   version="1.1"
   id="svg1"
   xmlns="http://www.w3.org/2000/svg"
   xmlns:svg="http://www.w3.org/2000/svg">
  <defs
     id="defs1" />
  <g
     id="layer1"
     transform="translate(63.406786,-70.300086)">
    <g
       id="g7"
       transform="matrix(0.94167995,0,0,0.94167995,-86.569217,63.718417)"
       style="fill:#f9f9f9">
      <path
         id="path6"
         style="font-style:italic;font-weight:500;font-size:19.5367px;line-height:1.25;font-family:Kanit;-inkscape-font-specification:'Kanit Medium Italic';letter-spacing:0.0118675px;fill:#f9f9f9;fill-opacity:1;stroke-width:0.208793"
         d="m 40.483972,7.1229837 -1.194234,5.6291513 h 1.127402 l 0.592965,-2.8062807 c 0.144764,-0.1169226 0.311714,-0.2142718 0.501013,-0.2922217 0.189305,-0.077945 0.370364,-0.1170696 0.54296,-0.1170696 0.306226,0 0.498427,0.055722 0.576373,0.1670797 0.08353,0.1113568 0.09739,0.3008243 0.04169,0.5680803 l -0.526133,2.480412 h 1.127396 l 0.534432,-2.538949 C 43.913629,9.7176503 43.863579,9.3446346 43.657584,9.0940841 43.457137,8.8379633 43.111873,8.7099095 42.621903,8.7099095 c -0.27282,0 -0.534386,0.038888 -0.784935,0.1168424 -0.244989,0.077949 -0.462204,0.1782556 -0.651503,0.3007477 l 0.425883,-2.0045159 z m -5.240143,0.058532 -0.183673,0.8851903 h 1.227646 l 0.183909,-0.8851903 z m -9.510977,0.191973 -1.135924,5.3786453 h 1.127625 l 0.4759,-2.255027 h 2.346973 l 0.183679,-0.8685919 h -2.34675 l 0.292221,-1.3779078 h 2.655792 L 29.51604,7.3734889 Z M 38.6977,7.607401 37.503236,7.9415648 37.319564,8.793335 h -0.559552 l -0.183679,0.8685965 h 0.559552 l -0.392464,1.8374365 c -0.08909,0.412016 -0.04471,0.737724 0.133432,0.977139 0.17817,0.239415 0.487272,0.359053 0.927133,0.359053 0.345198,0 0.651345,-0.05004 0.918597,-0.150258 l 0.167081,-0.776871 c -0.183731,0.05568 -0.350681,0.08365 -0.501013,0.08365 -0.239414,0 -0.395445,-0.03889 -0.467831,-0.116842 -0.0668,-0.08352 -0.07796,-0.233858 -0.03342,-0.451007 l 0.375879,-1.7623045 h 0.935425 l 0.25051,-0.8685965 h -1.002263 z m -7.248811,1.1025085 c -0.373044,0 -0.723771,0.09189 -1.052266,0.2756317 -0.328503,0.1781663 -0.609628,0.4342733 -0.843474,0.7683439 -0.233853,0.3340659 -0.401026,0.7375589 -0.50125,1.2108239 -0.09466,0.450992 -0.09192,0.815821 0.0083,1.094209 0.105791,0.272821 0.281381,0.470476 0.526369,0.592969 0.250549,0.122492 0.545548,0.183673 0.885185,0.183673 0.278394,0 0.526081,-0.03617 0.743224,-0.108546 0.222711,-0.07795 0.437196,-0.19213 0.643204,-0.342459 l -0.0083,0.36758 h 0.968613 L 33.653676,8.7933357 H 32.52628 L 32.47625,9.0523729 C 32.337048,8.9243105 32.186709,8.8351493 32.025242,8.7850407 31.863774,8.7349256 31.67158,8.7099095 31.448869,8.7099095 Z m 3.051716,0.083426 -0.27563,0.8351803 h 0.59297 l -0.659801,3.1236192 h 1.127632 L 36.120951,8.7933357 Z M 31.56573,9.536563 c 0.311799,0 0.55403,0.1169094 0.726632,0.3507538 l -0.36735,1.7623092 c -0.295097,0.239415 -0.618071,0.359054 -0.968844,0.359054 -0.356341,0 -0.595847,-0.07233 -0.718334,-0.217091 -0.116927,-0.144763 -0.1308,-0.420431 -0.04169,-0.82688 0.206009,-0.952095 0.662501,-1.428146 1.369614,-1.428146 z" />
      <path
         id="path7"
         style="font-style:italic;font-weight:500;font-size:19.5367px;line-height:1.25;font-family:Kanit;-inkscape-font-specification:'Kanit Medium Italic';letter-spacing:0.0118675px;fill:#f9f9f9;fill-opacity:1;stroke-width:0.208793"
         d="m 61.793675,6.9893156 c -0.512233,0 -0.901855,0.1310143 -1.169107,0.3927007 -0.261691,0.2616864 -0.43432,0.5985396 -0.517841,1.0105555 l -0.08342,0.4007639 h -0.551253 l -0.183679,0.8685965 h 0.551023 l -0.651273,3.0902028 h 1.127403 l 0.651503,-3.0902028 h 0.952016 l 0.233919,-0.8685965 h -1.002263 l 0.08343,-0.38417 c 0.04458,-0.2115779 0.125284,-0.3591913 0.242211,-0.4427114 0.11692,-0.089085 0.295241,-0.1334317 0.534655,-0.1334317 0.09466,0 0.178131,0.00821 0.25051,0.024884 0.07795,0.016722 0.153011,0.038973 0.22539,0.066832 L 62.653977,7.1480944 C 62.542618,7.0979859 62.417294,7.0590894 62.278097,7.0312526 62.138907,7.0034277 61.97742,6.9892854 61.793675,6.9892854 Z M 49.827867,7.2900633 c -0.974366,0 -1.734266,0.2476919 -2.279912,0.7432234 -0.545646,0.4955354 -0.913201,1.1888019 -1.102513,2.0796473 -0.122507,0.556784 -0.111345,1.041251 0.03342,1.453266 0.150332,0.40645 0.409167,0.72101 0.776643,0.943723 0.373043,0.217144 0.837946,0.325637 1.394727,0.325637 h 2.36e-4 c 0.322935,0 0.617933,-0.0223 0.885185,-0.06683 0.272827,-0.04455 0.531668,-0.103 0.776643,-0.175379 l 0.208799,-0.993734 c -0.256123,0.09466 -0.51769,0.166982 -0.784942,0.217095 -0.261691,0.04455 -0.52348,0.06683 -0.785171,0.06683 -0.656999,0 -1.080052,-0.147618 -1.269357,-0.44271 -0.189306,-0.295094 -0.220013,-0.737707 -0.09196,-1.327898 0.133629,-0.6291596 0.364718,-1.0967913 0.693221,-1.4030245 0.33407,-0.3062287 0.807389,-0.4593013 1.419846,-0.4593013 0.540079,0 1.027271,0.097349 1.461565,0.2922216 L 51.37309,7.5573955 C 51.161514,7.473876 50.930425,7.4097329 50.679876,7.36519 50.434888,7.3150815 50.150808,7.2900633 49.827873,7.2900633 Z m 14.44968,0.3173383 -1.194227,0.3341639 -0.183679,0.8517702 h -0.559552 l -0.183902,0.8685965 h 0.559552 l -0.392471,1.8374358 c -0.08908,0.412016 -0.04451,0.737724 0.133662,0.97714 0.178177,0.239414 0.487278,0.359052 0.927133,0.359052 0.345205,0 0.651352,-0.05004 0.918604,-0.150257 l 0.167081,-0.776871 c -0.183738,0.05568 -0.350911,0.08365 -0.501243,0.08365 -0.239414,0 -0.395215,-0.03889 -0.467601,-0.116842 -0.0668,-0.08351 -0.07796,-0.233858 -0.03342,-0.451006 l 0.37588,-1.7623048 h 0.935425 l 0.250503,-0.8685965 h -1.002256 z m -9.812645,1.1025079 c -0.261691,0.033399 -0.534399,0.097322 -0.818354,0.1919737 -0.278387,0.089085 -0.520625,0.1893908 -0.726633,0.3007477 l 0.03342,-0.4092952 H 51.90936 l -0.835175,3.9587993 h 1.127396 l 0.584672,-2.7645657 c 0.122494,-0.06125 0.270108,-0.1197004 0.442704,-0.1753792 0.17817,-0.055676 0.358993,-0.105715 0.542731,-0.1502579 0.189305,-0.044554 0.361941,-0.077977 0.517834,-0.100248 z m 2.172525,0 c -0.373043,0 -0.72377,0.09189 -1.052272,0.2756317 -0.328503,0.1781663 -0.609628,0.4342733 -0.843474,0.7683439 -0.233847,0.3340659 -0.401026,0.7375589 -0.50125,1.2108239 -0.09466,0.450992 -0.09192,0.815821 0.0083,1.094209 0.105791,0.272821 0.281158,0.470476 0.526133,0.592969 0.250556,0.122492 0.545784,0.183673 0.885421,0.183673 0.278394,0 0.526087,-0.03617 0.743231,-0.108546 0.222704,-0.07795 0.437189,-0.19213 0.643204,-0.342459 l -0.0085,0.36758 h 0.968843 L 58.842176,8.7933357 H 57.71478 L 57.66455,9.0523729 C 57.525357,8.9243105 57.375011,8.8351493 57.213551,8.7850407 57.052077,8.7349256 56.860112,8.7099095 56.637407,8.7099095 Z m 0.116841,0.8266535 c 0.311793,0 0.554024,0.1169094 0.726633,0.3507538 l -0.367357,1.7623092 c -0.295091,0.239415 -0.618065,0.359054 -0.968838,0.359054 -0.35634,0 -0.595846,-0.07233 -0.71834,-0.217091 -0.116927,-0.144763 -0.130793,-0.420431 -0.04169,-0.82688 0.206009,-0.952095 0.662501,-1.428146 1.369614,-1.428146 z" />
      <text
         xml:space="preserve"
         style="font-style:normal;font-variant:normal;font-weight:600;font-stretch:normal;font-size:2.94192px;line-height:1.25;font-family:Kanit;-inkscape-font-specification:'Kanit Semi-Bold';letter-spacing:1.13106px;fill:#f9f9f9;fill-opacity:1;stroke:none;stroke-width:0.0735483"
         x="34.709263"
         y="16.823217"
         id="text7"><tspan
           id="tspan7"
           style="font-style:normal;font-variant:normal;font-weight:600;font-stretch:normal;font-family:Kanit;-inkscape-font-specification:'Kanit Semi-Bold';fill:#f9f9f9;fill-opacity:1;stroke-width:0.0735483"
           x="34.709263"
           y="16.823217">APPAREL</tspan></text>
    </g>
  </g>
</svg>
