<?xml version="1.0" encoding="UTF-8" standalone="no"?>
<!-- Created with Inkscape (http://www.inkscape.org/) -->

<svg
   width="41.666687"
   height="40"
   viewBox="0 0 11.024311 10.583333"
   version="1.1"
   id="svg1"
   xmlns="http://www.w3.org/2000/svg"
   xmlns:svg="http://www.w3.org/2000/svg">
  <defs
     id="defs1" />
  <g
     id="layer1"
     transform="translate(131.2722,-6.6145841)">
    <path
       id="path5"
       style="fill:#e3a53e;fill-opacity:1;stroke-width:0.443927;stroke-linejoin:round"
       d="m -128.18539,6.6145837 v 0.8819406 0.440973 h 0.88194 v -0.440973 h 5.93729 a 1.7638893,1.7638893 0 0 1 -1.52756,0.8819464 h -5.29167 a 3.0868065,3.0868063 0 0 0 -3.08681,3.0868053 3.0868065,3.0868063 0 0 0 3.08681,3.086808 h 1.76389 v 1.523766 a 1.7638893,1.7638893 0 0 1 -0.82545,-1.082794 h -0.90124 a 2.6458341,2.6458341 0 0 0 2.60863,2.20486 v -0.68299 -0.198954 -1.763888 -0.881945 h -2.64583 a 2.2048614,2.2048612 0 0 1 -2.20486,-2.204863 2.2048614,2.2048612 0 0 1 2.20486,-2.2048615 h 5.29167 a 2.6458341,2.6458341 0 0 0 2.64583,-2.6458309 h -0.71296 z m 0,3.5277743 a 1.3229163,1.3229163 0 0 0 -1.32292,1.322918 1.3229163,1.3229163 0 0 0 1.32292,1.322916 h 3.40617 a 2.6458341,2.6458341 0 0 0 2.64583,-2.645834 h -0.65078 z m 0,0.881947 h 4.93389 a 1.7638893,1.7638893 0 0 1 -1.52772,0.881943 h -3.40617 a 0.4409715,0.4409715 0 0 1 -0.44097,-0.440972 0.4409715,0.4409715 0 0 1 0.44097,-0.440971 z" />
  </g>
</svg>
